<?xml version="1.0" encoding="UTF-8" standalone="no"?>
<!-- Created with Inkscape (http://www.inkscape.org/) -->

<svg
   width="17mm"
   height="18mm"
   viewBox="0 0 17 18"
   version="1.1"
   id="svg2667"
   xmlns="http://www.w3.org/2000/svg"
   xmlns:svg="http://www.w3.org/2000/svg">
  <defs
     id="defs2664">
    <linearGradient
       id="linearGradient31162"
       gradientTransform="matrix(3.5850509e-7,0,0,2.7982889e-7,-202.3262,-293.15987)">
      <stop
         style="stop-color:#7293d7;stop-opacity:1;"
         offset="0"
         id="stop31160" />
    </linearGradient>
  </defs>
  <g
     id="layer1"
     transform="translate(-162.3176,-135.09476)">
    <path
       style="display:inline;fill:#d77272;fill-opacity:1;stroke-width:0.264583"
       d="m 168.46732,150.55621 c -0.11838,-0.0722 -0.24757,-0.19166 -0.2871,-0.26553 -0.044,-0.0823 -0.0707,-0.63992 -0.0687,-1.4392 l 0.003,-1.3049 2.19237,-2.38122 c 2.32137,-2.52132 2.37707,-2.59879 2.06885,-2.87774 -0.16875,-0.15272 -0.36173,-0.14026 -0.59359,0.0383 -0.19092,0.14705 -3.34071,2.94174 -4.49516,3.98838 l -0.58471,0.53009 -1.22049,-0.61097 c -0.80161,-0.40127 -1.2591,-0.6699 -1.333,-0.78267 -0.15335,-0.23405 -0.14436,-0.6758 0.0183,-0.8935 0.079,-0.10583 2.42408,-1.48547 5.93079,-3.48919 6.2648,-3.57968 6.07878,-3.48887 6.50269,-3.17399 0.10377,0.0771 0.23384,0.21971 0.28903,0.31697 0.11668,0.20563 0.17711,-0.24847 -0.90501,6.80214 -0.65172,4.24649 -0.67712,4.37764 -0.89042,4.60031 -0.33026,0.3447 -0.47284,0.32676 -1.8533,-0.23296 -0.68649,-0.27837 -1.39507,-0.56925 -1.57465,-0.64646 -0.17957,-0.0772 -0.367,-0.14036 -0.41653,-0.14036 -0.0495,0 -0.47641,0.41799 -0.94864,0.9289 -1.10812,1.19883 -1.34442,1.33202 -1.83385,1.03359 z"
       id="path61397" />
  </g>
</svg>
