<?xml version="1.0" encoding="UTF-8" standalone="no"?>
<!-- Created with Inkscape (http://www.inkscape.org/) -->

<svg
   width="512"
   height="512"
   viewBox="0 0 135.46667 135.46666"
   version="1.1"
   id="svg2740"
   sodipodi:docname="logoapp_instalada.svg"
   inkscape:version="1.4.2 (ebf0e940d0, 2025-05-08)"
   inkscape:export-filename="icono_instalada.png"
   inkscape:export-xdpi="96"
   inkscape:export-ydpi="96"
   xmlns:inkscape="http://www.inkscape.org/namespaces/inkscape"
   xmlns:sodipodi="http://sodipodi.sourceforge.net/DTD/sodipodi-0.dtd"
   xmlns="http://www.w3.org/2000/svg"
   xmlns:svg="http://www.w3.org/2000/svg">
  <sodipodi:namedview
     id="namedview1"
     pagecolor="#ffffff"
     bordercolor="#000000"
     borderopacity="0.25"
     inkscape:showpageshadow="2"
     inkscape:pageopacity="0.0"
     inkscape:pagecheckerboard="0"
     inkscape:deskcolor="#d1d1d1"
     inkscape:window-width="1920"
     inkscape:window-height="1056"
     inkscape:window-x="0"
     inkscape:window-y="0"
     inkscape:window-maximized="1"
     inkscape:current-layer="svg2740" />
  <defs
     id="defs2737" />
  <rect
     style="fill:#7293d7;stroke-width:1.7774;stroke-linecap:round;paint-order:fill markers stroke"
     id="rect1"
     width="135.46666"
     height="135.46666"
     x="0"
     y="0"
     rx="0"
     ry="0" />
  <path
     id="path2715"
     style="color:#000000;-inkscape-font-specification:'sans-serif, Italic';fill:#000000;fill-opacity:0.139651;stroke-width:0.0439787;-inkscape-stroke:none"
     d="m 120.31571,52.994173 c -2.99743,9.74e-4 -5.76569,0.811134 -7.88479,2.154635 a 0.56305488,0.56305488 0 0 0 -0.004,0.0037 c -0.007,0.0051 -0.016,0.0099 -0.0232,0.01467 -0.001,6.91e-4 -0.001,0.0018 -0.003,0.0024 -6.3e-4,5.02e-4 -0.002,7.55e-4 -0.003,0.0013 -2.21572,1.493939 -3.45773,3.800219 -3.45773,6.455318 0,1.327789 0.31112,2.548098 0.90186,3.609872 a 0.56305488,0.56305488 0 0 0 0.0454,0.01973 c 0.0288,0.07845 0.0245,0.167147 0.0687,0.238027 a 0.56305488,0.56305488 0 0 0 0.0197,0.02944 c 0.0208,0.02909 0.043,0.05752 0.0663,0.08467 l -0.0466,-0.06379 c 0.6564,1.02553 1.58013,1.87536 2.69452,2.559549 a 0.56305488,0.56305488 0 0 0 0.01,0 c 0.0406,0.03072 0.0761,0.06784 0.12024,0.09325 1.22822,0.708027 2.87659,1.308475 5.01726,1.896966 2.03354,0.571029 3.47582,1.070402 4.14117,1.384069 a 0.56305488,0.56305488 0 0 0 0.004,0 c 0.002,7.55e-4 0.003,0.0017 0.005,0.0024 3.7e-4,1.71e-4 6.3e-4,-1.71e-4 0.001,0 0.004,0.0018 0.008,0.0019 0.0123,0.0037 l -10e-4,0.0024 c 0.68681,0.314734 1.07533,0.664691 1.18407,0.818419 a 0.56305488,0.56305488 0 0 0 0.0136,0.01707 c 0.11269,0.156373 0.23314,0.451901 0.23314,1.045413 0,1.2922 -0.28168,1.811688 -1.14112,2.374272 -0.7827,0.501675 -2.49514,0.936211 -4.99027,0.936211 -2.03997,0 -3.46073,-0.365582 -4.19515,-0.823326 a 0.56305488,0.56305488 0 0 0 -0.001,0 c -3.9e-4,-2.42e-4 -6.3e-4,-0.001 -0.001,-0.0013 -0.0349,-0.02187 -0.0772,-0.05048 -0.1264,-0.08467 -0.0523,-0.0364 -0.32332,-0.304504 -0.54479,-0.587742 -0.22147,-0.283234 -0.43451,-0.612082 -0.50676,-0.765656 -0.048,-0.101893 -0.0901,-0.205306 -0.13128,-0.315344 -0.40981,-1.095824 -1.55912,-1.941525 -2.85158,-1.671192 a 0.56305488,0.56305488 0 0 0 0,0.0013 h -0.001 l -1.50309,0.315344 a 0.56305488,0.56305488 0 0 0 -0.003,-0.0013 c -1.30827,0.273638 -2.1889,1.645371 -1.74604,2.965691 0.11653,0.347416 0.2464,0.687083 0.38897,1.015968 a 0.56305488,0.56305488 0 0 0 0,0.0013 c 0.32521,0.750176 0.87226,1.666763 1.41842,2.3166 0.58739,0.698909 1.2708,1.296557 2.03316,1.797573 0.0229,0.0152 0.0471,0.02931 0.0712,0.04296 a 0.56305488,0.56305488 0 0 0 0.001,0.0013 c 1.96789,1.109011 4.4609,1.587755 7.44307,1.587755 4.0581,0 7.25917,-0.674624 9.54003,-2.308014 2.25892,-1.617682 3.4614,-4.11696 3.4614,-7.016061 0,-1.496187 -0.33521,-2.876928 -1.07854,-4.028288 l -0.003,-0.0037 c -0.0152,-0.02373 -0.0311,-0.04739 -0.0479,-0.06995 a 0.56305488,0.56305488 0 0 0 -0.003,-0.0037 c -0.82144,-1.086112 -1.78952,-2.012707 -2.83777,-2.634251 -0.0282,-0.01707 -0.0576,-0.03307 -0.0871,-0.04784 a 0.56305488,0.56305488 0 0 0 -0.005,-0.0024 c -1.95345,-0.952661 -3.77144,-1.554605 -5.37825,-2.00368 a 0.56305488,0.56305488 0 0 0 -0.0123,-0.0024 l -0.003,-0.0013 c -2.0653,-0.558051 -3.48941,-1.039392 -3.96551,-1.263827 -0.52292,-0.264106 -0.81011,-0.534053 -0.92517,-0.69817 -0.10101,-0.15712 -0.2,-0.418518 -0.2,-0.927624 0,-1.073907 0.19678,-1.423795 0.99388,-1.923955 0.73606,-0.461854 2.20329,-0.83928 4.31909,-0.83928 1.56773,0 2.68927,0.28584 3.39024,0.69817 a 0.56305488,0.56305488 0 0 0 0.007,0.0037 c 0.29282,0.17024 0.53276,0.365536 0.74234,0.60001 0.0589,0.06592 0.43879,0.647587 0.50922,0.798787 0.50521,1.084574 1.76092,1.673158 2.96201,1.319038 l 1.45153,-0.428224 c 1.26674,-0.373473 2.07675,-1.761451 1.58531,-3.067534 -0.0675,-0.17928 -0.13941,-0.351837 -0.21352,-0.519029 -0.35735,-0.806376 -0.97142,-1.699006 -1.62457,-2.32028 -0.4753,-0.452115 -1.0125,-0.844784 -1.60125,-1.181614 l -0.001,-0.0013 c -1.9055,-1.100002 -5.01467,-1.625378 -7.70026,-1.606322 z m -71.268622,0.01707 a 0.56305488,0.56305488 0 0 0 -0.0112,0.0024 0.56305488,0.56305488 0 0 0 -0.0024,-0.0012 c -3.12256,0 -6.00084,0.726104 -8.536334,2.187766 l 0.277304,-0.07363 a 0.56305488,0.56305488 0 0 0 -0.393869,0.164427 l 0.11536,-0.08957 c -2.541571,1.453179 -4.550544,3.564816 -5.959608,6.235683 -0.01467,0.0276 -0.02789,0.05477 -0.04048,0.08344 a 0.56305488,0.56305488 0 0 0 -0.0013,0.0037 c -1.240184,2.860829 -2.025096,5.903722 -2.047885,8.611184 a 0.56305488,0.56305488 0 0 0 0,0.0024 c -1.4e-5,0.0032 -1.4e-5,0.0069 0,0.0099 4.98e-4,3.665157 1.078077,6.774429 3.30312,9.01364 a 0.56305488,0.56305488 0 0 0 0.0051,0.0037 c 2.23507,2.235072 5.377712,3.308027 9.110574,3.308027 3.094602,0 5.939813,-0.704902 8.440624,-2.130094 2.499658,-1.424538 4.493597,-3.478813 5.916661,-6.071264 4.43e-4,-8.16e-4 7.52e-4,-0.0016 0.0013,-0.0024 a 0.56305488,0.56305488 0 0 0 0.0037,-0.0024 c 1.434899,-2.628403 2.160227,-5.70288 2.224577,-9.152293 a 0.56305488,0.56305488 0 0 0 0,-0.0061 c 5.3e-5,-0.0059 2.9e-5,-0.0112 0,-0.01707 v -0.0051 -0.0013 c 0,-3.526248 -1.122883,-6.55724 -3.382878,-8.767011 -2.726027,-2.726123 -6.319587,-3.277325 -9.022405,-3.307075 z m -36.96746,0.382939 c -1.25531,-6.27e-4 -2.3689498,0.917709 -2.6086301,2.149728 a 0.56305488,0.56305488 0 0 0 0,0.0013 L 4.8316597,79.492758 c -0.1247306,0.643368 0.043709,1.311125 0.4613571,1.817205 0.4172413,0.505587 1.0403787,0.799187 1.6957326,0.798787 h 1.3595309 c 1.2563016,-1.6e-5 2.3708617,-0.92236 2.6074037,-2.155862 a 0.56305488,0.56305488 0 0 0 0.0098,-0.10552 v 0.05277 l 3.062605,-15.958558 7.175575,16.351182 c 0.479237,1.092021 1.588048,1.816474 2.780412,1.815981 h 2.093285 c 1.25573,3.71e-4 2.369844,-0.919296 2.608628,-2.152181 L 33.326555,56.00894 a 0.56305488,0.56305488 0 0 0 0.0013,-0.0099 c 0.120693,-0.640378 -0.04859,-1.303544 -0.463811,-1.806152 -0.416805,-0.504528 -1.039176,-0.799066 -1.694504,-0.798786 h -1.395115 c -1.255637,-10e-4 -2.369458,0.917728 -2.609856,2.149728 l -3.117845,16.03833 c -0.0036,0.01787 -0.0075,0.05251 -0.01104,0.07117 L 16.807311,55.207707 c -0.480119,-1.090704 -1.588654,-1.813915 -2.780412,-1.813528 z m 53.702698,0 c -1.25632,-6.91e-4 -2.371158,0.920024 -2.60863,2.15341 l -0.2184,1.136214 h 0.0013 c -0.124666,0.643922 0.04563,1.310864 0.462584,1.815981 0.416872,0.505021 1.03944,0.800368 1.695734,0.800013 h 6.144882 l -3.932573,20.191734 c -0.12552,0.643149 0.04317,1.311339 0.460128,1.817205 0.416832,0.505736 1.039557,0.800422 1.695733,0.800014 h 1.722728 c 1.25584,4.13e-4 2.370075,-0.918363 2.609854,-2.150955 L 77.84026,59.2998 h 6.618515 c 1.256717,4.75e-4 2.371483,-0.921042 2.608627,-2.154637 a 0.56305488,0.56305488 0 0 0 0.0099,-0.106747 v 0.05277 l 0.208587,-1.082227 c 0.12368,-0.643024 -0.04611,-1.310563 -0.463747,-1.815981 -0.417301,-0.505019 -1.040456,-0.79899 -1.695733,-0.798787 z m 29.605378,0 c -1.041424,-5.63e-4 -2.02497,0.556538 -2.562002,1.447877 l -14.68612,24.402846 c -0.351315,0.58373 -0.361515,1.310853 -0.02587,1.904322 0.335469,0.59296 0.961984,0.959984 1.6442,0.959526 h 2.147275 c 1.158477,-5.6e-5 2.25445,-0.63243 2.83685,-1.633155 l 3.419688,-5.866352 h 9.473771 l 0.970568,5.331373 c 0.225227,1.238459 1.338835,2.168392 2.597596,2.168134 h 1.82211 c 0.65649,2.53e-4 1.28078,-0.295368 1.69573,-0.80492 0.41487,-0.509451 0.57732,-1.180707 0.44418,-1.823342 a 0.56305488,0.56305488 0 0 0 0,-0.0013 l -4.96449,-23.950077 v -0.0013 a 0.56305488,0.56305488 0 0 0 0,-0.0013 c -0.254486,-1.225755 -1.369305,-2.132758 -2.620902,-2.13255 z M 48.8704,58.88016 c 2.137197,0 3.500224,0.540184 4.489643,1.55708 a 0.56305488,0.56305488 0 0 0 0.0051,0.0051 c 0.0015,0.0015 0.0021,0.0021 0.0037,0.0037 0.115546,0.117973 0.162826,0.311168 0.266266,0.441725 -0.189893,-0.06379 -0.383696,-0.121466 -0.593874,-0.121466 h -10.09711 c 0.19632,-0.154587 0.349987,-0.371782 0.560744,-0.506758 1.421144,-0.902501 3.165888,-1.379162 5.365728,-1.379162 z m 46.442459,3.170603 1.250328,6.780475 h -5.116645 c 1.984146,-3.476014 3.178872,-5.571342 3.866317,-6.780475 z M 40.5672,63.794347 c 0.185333,0.863659 0.923819,1.532541 1.839293,1.532539 h 10.634526 c 0.76969,0 1.42993,-0.469934 1.733768,-1.13008 0.03152,0.338581 0.136186,0.577994 0.136186,0.960754 0,2.138976 -0.421034,4.132043 -1.269957,6.03936 a 0.56305488,0.56305488 0 0 0 -0.0024,0.0061 c -0.172613,0.39292 -0.408192,0.66248 -0.604917,1.006152 v -0.06259 c 0,-1.052389 -0.867558,-1.916597 -1.917824,-1.916597 H 40.481373 c -0.565762,0 -1.063357,0.261866 -1.415976,0.65768 -0.0104,-0.20824 -0.07731,-0.336043 -0.07731,-0.559515 0,-1.988467 0.401626,-3.949304 1.22824,-5.926477 0.09933,-0.237574 0.242986,-0.387774 0.350928,-0.607371 z m 1.094496,1.552173 c -0.024,-9.8e-5 -0.05379,5.52e-4 -0.0908,0.0024 -1.011072,0.05157 -1.818432,0.898002 -1.818432,1.914141 v 0.726392 c 0,1.050267 0.864205,1.917821 1.916592,1.917821 h 10.634528 c 1.051685,0 1.917819,-0.866133 1.917819,-1.917821 V 67.26304 c 0,-1.052389 -0.867555,-1.916594 -1.917819,-1.916594 H 41.669053 c -0.0017,8e-6 -0.0053,5e-6 -0.0075,0 z m -1.359531,9.40751 c 0.06184,0.0061 0.115787,0.0368 0.179147,0.0368 h 10.362125 c -0.18568,0.1408 -0.330802,0.341082 -0.52884,0.465037 -1.398117,0.870688 -3.117666,1.331309 -5.285976,1.331309 -2.192085,0 -3.580296,-0.542517 -4.544856,-1.522722 -0.07819,-0.08141 -0.10896,-0.22232 -0.1816,-0.310435 z" />
  <path
     id="path9042"
     style="color:#000000;-inkscape-font-specification:'sans-serif, Italic';fill:#ffffff;stroke-width:0.628229;-inkscape-stroke:none"
     d="m 120.32062,54.212597 c -2.77775,0 -5.33741,0.761379 -7.23693,1.965678 -1.9279,1.297869 -2.92396,3.151128 -2.92396,5.447939 0,1.235298 0.27342,2.316965 0.82945,3.222138 l 10e-4,0.0013 v 0.0013 c 0.56394,0.897171 1.38143,1.660883 2.43562,2.288379 l 0.003,0.0013 0.001,0.0013 c 1.07293,0.618509 2.64449,1.20368 4.73382,1.777944 2.06683,0.580218 3.52299,1.073064 4.33626,1.456464 h 10e-4 l 0.003,0.0013 c 0.81835,0.374101 1.37076,0.792864 1.6761,1.22456 l 0.001,0.0013 10e-4,0.0013 c 0.30305,0.418 0.4675,0.995338 0.4675,1.763218 0,1.560126 -0.55211,2.649051 -1.69574,3.396374 -1.13904,0.732514 -3.02825,1.132533 -5.65408,1.132533 -2.17535,0 -3.7899,-0.353352 -4.84056,-1.008603 -0.0612,-0.03819 -0.12048,-0.07821 -0.17915,-0.11904 -0.53638,-0.373061 -1.17886,-1.242866 -1.4577,-1.835613 -0.0634,-0.134853 -0.1193,-0.269117 -0.17056,-0.406141 -0.2296,-0.613955 -0.81958,-1.039774 -1.46137,-0.905536 l -1.50678,0.315341 c -0.64178,0.13424 -1.04892,0.763917 -0.8405,1.385299 0.10592,0.315794 0.22416,0.62501 0.35216,0.920261 0.26048,0.60088 0.81166,1.516944 1.23314,2.018437 0.50828,0.604776 1.09925,1.12211 1.77058,1.563216 1.71176,0.964667 3.99547,1.430699 6.84551,1.430699 3.91991,0 6.86649,-0.67308 8.83082,-2.079789 1.95591,-1.400694 2.95219,-3.447096 2.95219,-6.025862 0,-1.318362 -0.28952,-2.450221 -0.88467,-3.370608 -0.74422,-0.98352 -1.6223,-1.810304 -2.49225,-2.325184 -1.86718,-0.910733 -3.60822,-1.487829 -5.17309,-1.925184 h -10e-4 c -2.10383,-0.56828 -3.51653,-1.02708 -4.18657,-1.344805 -0.66866,-0.334771 -1.13,-0.712227 -1.40493,-1.112901 -0.26088,-0.39756 -0.40245,-0.925208 -0.40245,-1.608616 0,-1.348635 0.50332,-2.290062 1.56444,-2.955875 1.06111,-0.665819 2.71819,-1.025784 4.96695,-1.025784 1.71122,0 3.04381,0.299949 4.00865,0.867498 h 0.001 c 0.39611,0.230294 0.742,0.509278 1.03806,0.840504 0.24088,0.26948 0.55287,0.769216 0.70553,1.09695 0.24917,0.53492 0.884,0.850469 1.51291,0.665042 l 1.45156,-0.428229 c 0.62891,-0.185413 1.02097,-0.856667 0.7902,-1.469963 -0.0584,-0.15528 -0.12083,-0.307045 -0.18651,-0.455218 -0.26507,-0.598134 -0.87657,-1.480096 -1.35094,-1.93132 -0.39962,-0.380123 -0.85755,-0.716678 -1.37058,-1.009832 -1.51119,-0.872488 -4.5948,-1.461808 -7.09336,-1.442968 z m -71.287028,0.01707 v 0.0013 c -2.936349,0 -5.587013,0.674448 -7.930189,2.0258 -2.344203,1.33976 -4.179483,3.264301 -5.490883,5.751014 -1.188205,2.740928 -1.926437,5.662445 -1.947272,8.137554 0,3.432963 0.978176,6.175526 2.948512,8.158411 l 0.0013,0.0013 c 1.972368,1.972371 4.745904,2.949741 8.250437,2.949741 2.911112,0 5.531128,-0.655824 7.838163,-1.970584 2.306826,-1.314645 4.128906,-3.188522 5.452848,-5.601317 h 0.0013 c 1.326466,-2.429781 2.01468,-5.298749 2.076106,-8.591547 v -0.0051 -0.0013 c 0,-3.279648 -1.007386,-5.939793 -3.024589,-7.906878 -2.403411,-2.403411 -5.626147,-2.920451 -8.175589,-2.948509 z m -36.953964,0.382939 a 1.4392847,1.4392847 0 0 0 -1.41352,1.164437 L 6.0267709,79.724664 a 0.97928011,0.97928011 0 0 0 0.9619785,1.165662 H 8.3482803 A 1.4366362,1.4366362 0 0 0 9.7593456,79.723435 L 12.845285,63.644651 c 0,0 0.428161,-2.51635 0.633139,-3.986566 l 8.840632,20.145107 a 1.817519,1.817519 0 0 0 1.665057,1.087134 h 2.093285 a 1.4393508,1.4393508 0 0 0 1.413519,-1.165662 L 32.13148,55.777043 a 0.97923512,0.97923512 0 0 0 -0.961979,-1.164438 h -1.395112 a 1.4402778,1.4402778 0 0 0 -1.414746,1.164438 l -3.117841,16.038291 c -0.185298,0.92657 -0.416824,2.483645 -0.653998,4.123992 L 15.691956,55.698512 a 1.8185924,1.8185924 0 0 0 -1.665057,-1.085907 z m 53.702698,0 a 1.4374321,1.4374321 0 0 0 -1.412291,1.165664 l -0.218427,1.136213 a 0.98054216,0.98054216 0 0 0 0.963203,1.166891 h 7.623451 L 68.52224,79.724662 a 0.97826262,0.97826262 0 0 0 0.960752,1.165661 h 1.722731 a 1.4407817,1.4407817 0 0 0 1.414744,-1.165661 l 4.216019,-21.643291 h 7.622205 a 1.4374428,1.4374428 0 0 0 1.412296,-1.166891 l 0.2184,-1.136213 a 0.98053491,0.98053491 0 0 0 -0.9632,-1.165664 z m 29.605378,0 a 1.7723196,1.7723196 0 0 0 -1.519037,0.857682 L 79.182539,79.873131 a 0.67112662,0.67112662 0 0 0 0.575472,1.017192 h 2.147275 a 2.0654158,2.0654158 0 0 0 1.785298,-1.027011 L 87.4612,73.390816 h 11.190366 l 1.152162,6.33139 a 1.4226938,1.4226938 0 0 0 1.400022,1.168117 h 1.82212 a 0.96640848,0.96640848 0 0 0 0.94725,-1.163205 L 99.008627,55.774584 A 1.4584554,1.4584554 0 0 0 97.580379,54.612603 Z M 48.8704,57.661733 c 2.356675,0 4.119747,0.648344 5.363275,1.926411 1.254501,1.27752 1.895736,3.112446 1.895736,5.569414 0,2.30044 -0.458616,4.475101 -1.375483,6.535074 v 0.0013 c -0.901787,2.052752 -2.164587,3.574136 -3.793925,4.593936 -1.617691,1.007851 -3.586728,1.517816 -5.931384,1.517816 -2.406571,0 -4.188224,-0.63833 -5.417262,-1.8896 l -0.0013,-0.0013 c -1.216792,-1.263448 -1.84052,-3.104037 -1.84052,-5.586592 0,-2.153824 0.439346,-4.283488 1.32272,-6.396421 0.878168,-2.100477 2.127621,-3.655438 3.755888,-4.698235 1.64193,-1.043795 3.641602,-1.571803 6.022184,-1.571803 z m 47.048606,0.839275 0.319021,1.851565 1.787757,9.697086 h -8.676208 c 3.786499,-6.632363 6.039179,-10.579675 6.325254,-11.0922 0.1052,-0.188507 0.156053,-0.294435 0.244186,-0.456451 z m -53.549323,3.483491 c -0.370342,0.01867 -0.66259,0.323037 -0.66259,0.698171 v 0.726394 c 0,0.387235 0.312166,0.699398 0.6994,0.699398 h 10.634526 c 0.387234,0 0.69817,-0.312163 0.69817,-0.699398 V 62.68267 c 0,-0.387235 -0.310936,-0.698171 -0.69817,-0.698171 H 42.406493 c -0.012,0 -0.0248,-6e-4 -0.0368,0 z m -0.736211,4.580443 c -0.370336,0.01867 -0.662584,0.323034 -0.662584,0.69817 v 0.726392 c 0,0.387238 0.310933,0.699398 0.698168,0.699398 h 10.634528 c 0.387235,0 0.699395,-0.31216 0.699395,-0.699398 v -0.726392 c 0,-0.387234 -0.31216,-0.69817 -0.699395,-0.69817 H 41.669056 c -0.012,0 -0.02373,-6.03e-4 -0.0356,0 z m -1.152163,4.883514 c -0.387234,0 -0.699397,0.310934 -0.699397,0.698171 v 0.726392 c 0,0.387235 0.312163,0.699397 0.699397,0.699397 h 10.634526 c 0.387234,0 0.699394,-0.312162 0.699394,-0.699397 v -0.726392 c 0,-0.387237 -0.31216,-0.698171 -0.699394,-0.698171 z" />
</svg>
