<?xml version="1.0" encoding="UTF-8" standalone="no"?>
<!-- Created with Inkscape (http://www.inkscape.org/) -->

<svg
   width="39"
   height="39"
   viewBox="0 0 10.31875 10.31875"
   version="1.1"
   id="svg2667"
   xmlns="http://www.w3.org/2000/svg"
   xmlns:svg="http://www.w3.org/2000/svg">
  <defs
     id="defs2664">
    <linearGradient
       id="linearGradient31162-3"
       gradientTransform="matrix(-0.0564198,0,0,-0.04403824,-65.834522,-9.9001026)">
      <stop
         style="stop-color:#7293d7;stop-opacity:1;"
         offset="0"
         id="stop31160-6" />
    </linearGradient>
  </defs>
  <path
     style="display:inline;fill:#d77272;fill-opacity:1;stroke:none;stroke-width:0.264582"
     d="M 4.8570489,10.036047 C 4.474091,9.8691479 4.4783243,9.8915579 4.4436904,7.8409049 l -0.031803,-1.882404 -1.8473472,-0.0318 C 0.49660978,5.8911109 0.45454098,5.8820359 0.26644868,5.4319269 0.14704228,5.1460709 0.22710518,4.8182519 0.47274438,4.5873239 l 0.165047,-0.155178 1.88703482,-0.0318 1.8870612,-0.0318 0.015611,-1.844357 c 0.011112,-1.301724 0.038312,-1.88804094 0.09316,-1.99286894 0.1920867,-0.3673795 0.8090153,-0.4443203 1.1464123,-0.1429599 l 0.207698,0.1854989 0.01852,1.91058294 0.01852,1.910583 1.910582,0.01852 1.910557,0.01852 0.185499,0.207698 c 0.2154243,0.241168 0.2489733,0.598065 0.08588,0.913421 -0.1792566,0.346684 -0.3451236,0.373433 -2.3150786,0.373433 h -1.782789 v 1.787023 c 0,1.997313 -0.02275,2.125477 -0.411983,2.3101561 -0.253153,0.120094 -0.383989,0.122608 -0.6374074,0.01217 z"
     id="path65512" />
</svg>
