<?xml version="1.0" encoding="UTF-8" standalone="no"?>
<!-- Created with Inkscape (http://www.inkscape.org/) -->

<svg
   width="17mm"
   height="18mm"
   viewBox="0 0 17 18"
   version="1.1"
   id="svg2667"
   xmlns="http://www.w3.org/2000/svg"
   xmlns:svg="http://www.w3.org/2000/svg">
  <defs
     id="defs2664" />
  <path
     style="fill:#d77772;fill-opacity:1;stroke-width:0.264583"
     d="m 3.3425936,14.58706 c -0.12248,-0.10306 -0.17217,-0.19379 -0.17217,-0.31439 0,-0.19537 0.74131,-2.76368 0.87426,-3.02895 0.0909,-0.18143 5.15599,-5.29723 5.24468,-5.29723 0.054,0 2.6665004,2.59758 2.6665004,2.65129 0,0.0183 -1.13618,1.1679 -2.5248704,2.55461 -1.8338,1.83121 -2.59871,2.5587 -2.79469,2.65801 -0.1484,0.0752 -0.47902,0.19787 -0.73469,0.27258 -0.25569,0.0747 -0.85815,0.2513 -1.33882,0.3924 -0.48064,0.1411 -0.91308,0.25655 -0.96099,0.25655 -0.0479,0 -0.16452,-0.0652 -0.25921,-0.14487 z M 11.101784,6.7432 9.7729436,5.4135 10.374794,4.81486 c 0.34081,-0.33901 0.69204,-0.636 0.80983,-0.68479 0.26681,-0.1105 0.77206,-0.11049 1.03884,1e-5 0.2572,0.10654 1.31961,1.14715 1.48309,1.45268 0.15523,0.29015 0.16526,0.85998 0.0204,1.15614 -0.0984,0.20106 -1.16028,1.334 -1.25032,1.334 -0.0251,0 -0.64386,-0.59836 -1.37475,-1.3297 z"
     id="path27501" />
</svg>
