<?xml version="1.0" encoding="UTF-8" standalone="no"?>
<!-- Created with Inkscape (http://www.inkscape.org/) -->

<svg
   width="39"
   height="39"
   viewBox="0 0 10.31875 10.31875"
   version="1.1"
   id="svg2667"
   xmlns="http://www.w3.org/2000/svg"
   xmlns:svg="http://www.w3.org/2000/svg">
  <defs
     id="defs2664">
    <linearGradient
       id="linearGradient31162-3"
       gradientTransform="matrix(-0.0564198,0,0,-0.04403824,-65.834522,-9.9001026)">
      <stop
         style="stop-color:#7293d7;stop-opacity:1;"
         offset="0"
         id="stop31160-6" />
    </linearGradient>
  </defs>
  <path
     style="display:inline;fill:#d77272;fill-opacity:1;stroke:none;stroke-width:0.264582"
     d="M 1.4972703,8.3939259 C 1.3444936,8.0051183 1.3316408,8.0239579 2.7571815,6.5494374 L 4.0657541,5.1958887 2.7819683,3.8671309 C 1.3448866,2.3797174 1.3215565,2.3435533 1.5068303,1.8922768 1.6245279,1.605713 1.912944,1.430523 2.2499279,1.4409254 L 2.4763611,1.4479038 3.8331823,2.7597529 5.190022,4.0716207 6.505218,2.778502 C 7.4335332,1.8659015 7.8673552,1.4705461 7.9802632,1.4352049 8.3758656,1.3112542 8.8665053,1.6930832 8.891987,2.1447529 L 8.9076842,2.4227851 7.5697936,3.7868669 6.2319031,5.1509487 7.5697929,6.5150298 8.9076651,7.8790932 8.8919681,8.1571255 C 8.8737645,8.479985 8.645123,8.756072 8.3068082,8.863738 7.934912,8.9821271 7.798712,8.8837558 6.4057434,7.4907872 L 5.1451212,6.2301651 3.8815052,7.4937811 C 2.4691916,8.9060947 2.3624793,8.9806337 1.9566621,8.8359922 1.6927367,8.7419053 1.598444,8.6511679 1.4973416,8.3938826 Z"
     id="path65512" />
</svg>
