<?xml version="1.0" encoding="UTF-8" standalone="no"?>
<!-- Created with Inkscape (http://www.inkscape.org/) -->

<svg
   width="39"
   height="39"
   viewBox="0 0 10.31875 10.31875"
   version="1.1"
   id="svg2667"
   xmlns="http://www.w3.org/2000/svg"
   xmlns:svg="http://www.w3.org/2000/svg">
  <defs
     id="defs2664">
    <linearGradient
       id="linearGradient31162-3"
       gradientTransform="matrix(-0.0564198,0,0,-0.04403824,-65.834522,-9.9001026)">
      <stop
         style="stop-color:#7293d7;stop-opacity:1;"
         offset="0"
         id="stop31160-6" />
    </linearGradient>
  </defs>
  <path
     style="display:inline;fill:#d77272;fill-opacity:1;stroke-width:0.264583"
     d="M 2.1423756,10.172398 C 1.7486195,10.066391 1.5663051,9.9614497 1.2843194,9.6785085 0.99015015,9.383347 0.82886175,9.0585563 0.74970812,8.601971 0.70993722,8.3725571 0.69631503,7.1899627 0.70729832,4.9196804 L 0.72348528,1.5753388 0.8457398,1.2726684 C 1.0170709,0.84850967 1.370376,0.47498075 1.8006347,0.26311407 L 2.1542957,0.08896503 5.6158163,0.07353412 c 3.8501787,-0.01716329 3.7453741,-0.0258597 3.9116723,0.32459912 0.082081,0.17295911 0.088674,0.48387095 0.075509,3.55974746 l -0.014426,3.3702348 -0.1532028,0.159887 c -0.084262,0.087937 -0.215647,0.1671322 -0.2919673,0.175987 L 9.0046377,7.6800902 8.989732,8.3303789 c -0.010465,0.4566887 0.00298,0.6502898 0.045063,0.6502898 0.2643358,0 0.5803167,0.3468562 0.5803167,0.6370172 0,0.2073003 -0.1611494,0.4665641 -0.3439037,0.5532871 -0.1551252,0.07361 -0.5796532,0.08331 -3.5127618,0.08023 -2.7054657,-0.0028 -3.3892187,-0.01773 -3.6160672,-0.07881 z M 7.704058,8.3436492 V 7.7066318 H 5.0479494 c -2.9191155,0 -2.827608,-0.00987 -3.0001331,0.3237546 -0.1510794,0.2921521 -0.053505,0.6890157 0.2087135,0.8489108 0.1568806,0.095665 0.30452,0.1009824 2.8065604,0.1011692 L 7.704058,8.9807475 Z M 7.6069826,4.4336898 C 7.7260779,4.3259062 7.7332758,4.0805812 7.6206421,3.9679465 7.5476663,3.8949718 7.2788497,3.884526 5.4737168,3.884526 H 3.4102113 L 3.3275733,4.0025095 C 3.2163505,4.1612996 3.223565,4.2878336 3.3511053,4.4153751 3.453564,4.517837 3.5280528,4.5215449 5.4835901,4.5215449 c 1.8110084,0 2.0366241,-0.00933 2.1233925,-0.087855 z m 0,-1.2740355 C 7.7260779,3.0518726 7.7332758,2.8065465 7.6206414,2.6939111 7.5476655,2.6209374 7.278849,2.6104924 5.4737161,2.6104924 H 3.4102113 l -0.082638,0.1179824 c -0.04545,0.064889 -0.082637,0.1551262 -0.082637,0.2005267 0,0.0454 0.037187,0.1356367 0.082637,0.2005257 l 0.082638,0.1179834 H 5.460058 c 1.8329074,0 2.06012,-0.0093 2.1469246,-0.087856 z"
     id="path49328" />
</svg>
