<?xml version="1.0" encoding="UTF-8" standalone="no"?>
<!-- Created with Inkscape (http://www.inkscape.org/) -->

<svg
   width="96.88279"
   height="110.43853"
   viewBox="0 0 25.633572 29.220196"
   version="1.1"
   id="svg2667"
   xmlns="http://www.w3.org/2000/svg"
   xmlns:svg="http://www.w3.org/2000/svg">
  <defs
     id="defs2664">
    <linearGradient
       id="linearGradient31162-3"
       gradientTransform="matrix(-0.21324019,0,0,-0.16644376,744.22496,249.15187)">
      <stop
         style="stop-color:#7293d7;stop-opacity:1;"
         offset="0"
         id="stop31160-6" />
    </linearGradient>
  </defs>
  <path
     style="display:inline;fill:#d77272;fill-opacity:1;stroke-width:0.264583"
     d="M 4.3176326,28.732217 C 3.2083871,28.433584 2.6947915,28.137957 1.9004131,27.340884 1.0717122,26.509389 0.6173488,25.594425 0.394366,24.308185 0.282328,23.661906 0.243953,20.330434 0.274894,13.934849 L 0.320494,4.5135453 0.664896,3.6608964 C 1.1475507,2.4660037 2.142842,1.4137399 3.3549189,0.81689284 l 0.9962936,-0.4905932 9.7514075,-0.04347 c 10.846291,-0.04835 10.551047,-0.07285 11.019524,0.91442426 0.231227,0.4872408 0.249801,1.3631068 0.212714,10.0281211 l -0.04064,9.494247 -0.431586,0.450416 c -0.237373,0.247726 -0.607496,0.470826 -0.822497,0.495771 l -0.390908,0.04536 -0.04199,1.83192 c -0.02948,1.286531 0.0084,1.831922 0.126947,1.831922 0.744657,0 1.634803,0.977124 1.634803,1.794533 0,0.583983 -0.453972,1.314355 -0.968807,1.558661 -0.437001,0.207367 -1.632934,0.234685 -9.895758,0.226033 -7.6215352,-0.008 -9.5477273,-0.04996 -10.1867794,-0.222014 z M 19.98538,23.58047 v -1.794534 h -7.482491 c -8.2234045,0 -7.9656199,-0.02782 -8.4516381,0.912045 -0.425604,0.823018 -0.1507273,1.941018 0.587964,2.391455 0.4419467,0.269486 0.8578598,0.284478 7.9063271,0.285007 l 7.439838,7.93e-4 z M 19.71191,12.565771 c 0.335502,-0.303636 0.355779,-0.994738 0.03848,-1.31204 -0.205579,-0.205576 -0.962859,-0.235003 -6.048077,-0.235003 H 7.8892369 l -0.2327987,0.33237 c -0.3133264,0.447326 -0.2929993,0.803783 0.066295,1.163079 0.288634,0.288645 0.4984771,0.29909 6.0073968,0.29909 5.10177,0 5.737349,-0.0263 5.98178,-0.247496 z m 0,-3.5890701 C 20.047412,8.6730704 20.067689,7.9819655 19.750388,7.6646613 19.544809,7.459088 18.787529,7.4296637 13.702311,7.4296637 H 7.8892369 L 7.6564382,7.7620306 C 7.528399,7.9448286 7.4236425,8.199035 7.4236425,8.3269319 c 0,0.1278969 0.1047565,0.3821007 0.2327957,0.5648986 l 0.2327987,0.3323696 h 5.7745981 c 5.163461,0 5.803539,-0.026194 6.048075,-0.2474992 z"
     id="path49328" />
</svg>
