<?xml version="1.0" encoding="UTF-8" standalone="no"?>
<!-- Created with Inkscape (http://www.inkscape.org/) -->

<svg
   width="212"
   height="64"
   viewBox="0 0 56.091668 16.933333"
   version="1.1"
   id="svg2740"
   xmlns="http://www.w3.org/2000/svg"
   xmlns:svg="http://www.w3.org/2000/svg">
  <defs
     id="defs2737" />
  <path
     id="path2715"
     style="color:#000000;-inkscape-font-specification:'sans-serif, Italic';fill:#000000;fill-opacity:0.13965142;stroke-width:0.0700042;-inkscape-stroke:none"
     d="m 189.73242,9.4296875 c -4.77123,0.00155 -9.17767,1.2911355 -12.55078,3.4296875 a 0.89625469,0.89625469 0 0 0 -0.006,0.0059 c -0.012,0.0078 -0.0253,0.01541 -0.0371,0.02344 -0.002,0.0011 -0.002,0.0028 -0.004,0.0039 -0.001,7.97e-4 -0.003,0.0012 -0.004,0.002 -3.52691,2.378008 -5.50391,6.049084 -5.50391,10.275391 0,2.113539 0.49523,4.055989 1.43555,5.746094 a 0.89625469,0.89625469 0 0 0 0.0723,0.03125 c 0.0458,0.124877 0.0389,0.266071 0.10937,0.378906 a 0.89625469,0.89625469 0 0 0 0.0312,0.04687 c 0.0331,0.04631 0.0684,0.09155 0.10547,0.134765 l -0.0742,-0.101562 c 1.04483,1.632414 2.5152,2.985145 4.28906,4.074219 a 0.89625469,0.89625469 0 0 0 0.0156,0 c 0.0647,0.04892 0.12113,0.107996 0.1914,0.148437 1.95504,1.127018 4.57888,2.082793 7.98633,3.019532 3.23694,0.908949 5.53271,1.703838 6.5918,2.203124 a 0.89625469,0.89625469 0 0 0 0.006,0 c 0.003,0.0012 0.005,0.0027 0.008,0.0039 5.8e-4,2.7e-4 0.001,-2.7e-4 0.002,0 0.006,0.0029 0.0133,0.003 0.0195,0.0059 l -0.002,0.0039 c 1.09325,0.500983 1.71169,1.058034 1.88477,1.302735 a 0.89625469,0.89625469 0 0 0 0.0215,0.02734 c 0.17939,0.248905 0.3711,0.719325 0.3711,1.664063 0,2.056886 -0.44837,2.883788 -1.81641,3.779297 -1.24587,0.79855 -3.97169,1.490234 -7.94336,1.490234 -3.24717,0 -5.50869,-0.581925 -6.67773,-1.310547 a 0.89625469,0.89625469 0 0 0 -0.002,0 c -6.2e-4,-3.86e-4 -0.001,-0.0016 -0.002,-0.002 -0.0555,-0.03473 -0.12292,-0.08034 -0.20117,-0.134765 -0.0833,-0.05796 -0.51465,-0.484699 -0.86719,-0.935547 -0.35253,-0.450848 -0.69164,-0.974296 -0.80664,-1.21875 -0.0763,-0.162195 -0.14348,-0.326805 -0.20898,-0.501953 -0.65233,-1.744302 -2.48176,-3.090469 -4.53907,-2.660157 a 0.89625469,0.89625469 0 0 0 0,0.002 h -0.002 l -2.39258,0.501953 a 0.89625469,0.89625469 0 0 0 -0.004,-0.002 c -2.08248,0.43557 -3.48423,2.619057 -2.7793,4.720703 0.18548,0.553005 0.3922,1.093677 0.61914,1.617187 a 0.89625469,0.89625469 0 0 0 0,0.002 c 0.51767,1.194107 1.38845,2.653105 2.25781,3.6875 0.93499,1.112502 2.02282,2.063824 3.23633,2.861328 0.0367,0.02427 0.075,0.04665 0.11328,0.06836 a 0.89625469,0.89625469 0 0 0 0.002,0.002 c 3.13243,1.765294 7.10073,2.527345 11.84766,2.527344 6.45957,0 11.55494,-1.073845 15.18555,-3.673828 3.59568,-2.574979 5.50976,-6.553258 5.50976,-11.167969 0,-2.381584 -0.53359,-4.579412 -1.71679,-6.41211 l -0.004,-0.0059 c -0.0241,-0.03763 -0.0495,-0.07545 -0.0762,-0.111328 a 0.89625469,0.89625469 0 0 0 -0.004,-0.0059 c -1.30804,-1.729072 -2.849,-3.203998 -4.51758,-4.193359 -0.0449,-0.02728 -0.0917,-0.05263 -0.13867,-0.07617 a 0.89625469,0.89625469 0 0 0 -0.008,-0.0039 c -3.10905,-1.516469 -6.00289,-2.474628 -8.56055,-3.189453 a 0.89625469,0.89625469 0 0 0 -0.0195,-0.0039 l -0.004,-0.002 c -3.2878,-0.888283 -5.55467,-1.65447 -6.3125,-2.011718 -0.83237,-0.420413 -1.28952,-0.850093 -1.47266,-1.111328 -0.16078,-0.25009 -0.31837,-0.666185 -0.31836,-1.476563 0,-1.709416 0.31321,-2.266356 1.58203,-3.0625 1.17163,-0.735162 3.50713,-1.335937 6.875,-1.335937 2.49546,0 4.2807,0.454988 5.39649,1.111328 a 0.89625469,0.89625469 0 0 0 0.0117,0.0059 c 0.46611,0.270994 0.84803,0.581851 1.18164,0.955078 0.0938,0.104905 0.69844,1.030811 0.81055,1.271485 0.80419,1.726396 2.80298,2.663288 4.71484,2.099609 l 2.31055,-0.681641 c 2.01635,-0.594482 3.30571,-2.803826 2.52344,-4.882812 -0.10738,-0.285407 -0.22191,-0.560044 -0.33984,-0.826172 -0.56882,-1.28357 -1.54628,-2.704431 -2.58594,-3.693359 -0.75658,-0.719665 -1.61167,-1.344703 -2.54883,-1.88086 l -0.002,-0.002 C 198.96416,10.235632 194.01507,9.3993534 189.74023,9.4296875 Z M 76.289062,9.4570312 a 0.89625469,0.89625469 0 0 0 -0.01758,0.00391 0.89625469,0.89625469 0 0 0 -0.0039,-0.00195 c -4.970398,0 -9.551966,1.1557896 -13.58789,3.4824216 l 0.441406,-0.117187 a 0.89625469,0.89625469 0 0 0 -0.626953,0.261719 l 0.183593,-0.142579 c -4.045599,2.313127 -7.24342,5.674373 -9.486328,9.925782 -0.02351,0.04393 -0.0444,0.0872 -0.06445,0.132812 a 0.89625469,0.89625469 0 0 0 -0.002,0.0059 c -1.974088,4.553784 -3.223492,9.397375 -3.259766,13.707032 a 0.89625469,0.89625469 0 0 0 0,0.0039 c -1.8e-5,0.0048 -1.8e-5,0.01078 0,0.01563 7.92e-4,5.834096 1.716055,10.783344 5.257813,14.347656 a 0.89625469,0.89625469 0 0 0 0.0078,0.0059 c 3.557722,3.557726 8.560093,5.265626 14.501953,5.265625 4.925899,0 9.454827,-1.122044 13.435547,-3.390625 3.978883,-2.267538 7.152779,-5.537473 9.417969,-9.664063 7.08e-4,-0.0013 0.0012,-0.0026 0.002,-0.0039 a 0.89625469,0.89625469 0 0 0 0.0059,-0.0039 c 2.284032,-4.183817 3.438589,-9.077681 3.541015,-14.56836 a 0.89625469,0.89625469 0 0 0 0,-0.0098 c 8.8e-5,-0.0094 4.9e-5,-0.01793 0,-0.02734 v -0.0078 -0.002 c 0,-5.612981 -1.787372,-10.43763 -5.384765,-13.955078 C 86.311459,10.381771 80.591333,9.5043845 76.289062,9.4570312 Z m -58.84375,0.6093748 c -1.998166,-0.001 -3.770827,1.460778 -4.152343,3.421875 a 0.89625469,0.89625469 0 0 0 0,0.002 L 5.9082031,51.609375 c -0.1985409,1.024095 0.069573,2.087013 0.734375,2.892578 0.6641528,0.804776 1.6560452,1.272122 2.6992188,1.271485 h 2.1640621 c 1.999745,-2.7e-5 3.773871,-1.468186 4.150391,-3.431641 a 0.89625469,0.89625469 0 0 0 0.01563,-0.167969 v 0.08398 l 4.875,-25.402343 11.421875,26.027343 c 0.762836,1.738246 2.527809,2.89141 4.425781,2.890626 h 3.332031 c 1.998835,5.9e-4 3.772252,-1.463313 4.152344,-3.425782 l 7.386719,-38.11914 a 0.89625469,0.89625469 0 0 0 0.002,-0.01563 c 0.1921,-1.019355 -0.07734,-2.074963 -0.738281,-2.875 -0.663459,-0.80309 -1.654136,-1.271929 -2.697266,-1.271485 h -2.220703 c -1.998688,-0.0016 -3.771634,1.460814 -4.154297,3.421875 l -4.96289,25.529297 c -0.0057,0.02833 -0.01187,0.08359 -0.01758,0.113281 L 24.970703,12.953125 c -0.76424,-1.736151 -2.528775,-2.887335 -4.425781,-2.886719 z m 85.482418,0 c -1.99977,-0.0011 -3.774336,1.464465 -4.152339,3.427735 l -0.347657,1.808593 h 0.002 c -0.198409,1.024976 0.07264,2.086594 0.736328,2.890625 0.663565,0.803882 1.654544,1.274005 2.699214,1.273438 h 9.78125 l -6.25976,32.140625 c -0.1998,1.023746 0.0687,2.08735 0.73242,2.892578 0.6635,0.805016 1.65474,1.274087 2.69922,1.273438 h 2.74219 c 1.99901,6.58e-4 3.77262,-1.461826 4.15429,-3.423829 l 6.40625,-32.882812 h 10.53516 c 2.00041,7.56e-4 3.77486,-1.466086 4.15234,-3.429688 a 0.89625469,0.89625469 0 0 0 0.0156,-0.169921 v 0.08398 l 0.33203,-1.722656 c 0.19679,-1.023544 -0.0735,-2.086115 -0.73828,-2.890625 -0.66425,-0.803874 -1.65617,-1.271808 -2.69922,-1.271485 z m 47.125,0 c -1.65771,-8.99e-4 -3.22329,0.885879 -4.07812,2.304688 l -23.37695,38.84375 c -0.55921,0.929167 -0.57545,2.086578 -0.041,3.03125 0.53399,0.943855 1.53126,1.528075 2.61719,1.527344 h 3.41797 c 1.84403,-9e-5 3.58857,-1.006686 4.51562,-2.59961 l 5.44336,-9.33789 h 15.08008 l 1.54492,8.486328 c 0.35853,1.971338 2.13112,3.451586 4.13477,3.451172 h 2.90039 c 1.04498,4e-4 2.03871,-0.470158 2.69922,-1.28125 0.66037,-0.810931 0.91895,-1.879412 0.70703,-2.902344 a 0.89625469,0.89625469 0 0 0 0,-0.002 l -7.90235,-38.123047 v -0.002 a 0.89625469,0.89625469 0 0 0 0,-0.002 c -0.40507,-1.951119 -2.17961,-3.394862 -4.17187,-3.394532 z m -74.044918,8.732422 c 3.40193,0 5.571561,0.859853 7.146485,2.478516 a 0.89625469,0.89625469 0 0 0 0.0078,0.0078 c 0.0024,0.0024 0.0034,0.0034 0.0059,0.0059 0.18392,0.187751 0.259213,0.495308 0.423828,0.703125 -0.302274,-0.101532 -0.610759,-0.19336 -0.945313,-0.19336 H 66.574219 c 0.312496,-0.246035 0.557102,-0.59179 0.892578,-0.80664 2.262139,-1.436576 5.039371,-2.195313 8.541015,-2.195313 z m 73.925778,5.046875 1.99024,10.792969 h -8.14453 c 3.15831,-5.533016 5.06004,-8.868302 6.15429,-10.792969 z m -87.142574,2.775391 c 0.294993,1.374749 1.470508,2.439455 2.927734,2.439453 h 16.927734 c 1.225171,0 2.276124,-0.748029 2.759766,-1.798828 0.05017,0.53894 0.216797,0.92003 0.216797,1.529297 0,3.40476 -0.670194,6.577269 -2.021485,9.613281 a 0.89625469,0.89625469 0 0 0 -0.0039,0.0098 c -0.27476,0.625442 -0.649748,1.054519 -0.96289,1.601563 v -0.09961 c 0,-1.675164 -1.380953,-3.050782 -3.052735,-3.050782 H 62.654297 c -0.90056,0 -1.692619,0.416815 -2.253906,1.046875 -0.0165,-0.331477 -0.123047,-0.534907 -0.123047,-0.890625 0,-3.165184 0.639297,-6.286385 1.955078,-9.433593 0.158102,-0.378165 0.386797,-0.617248 0.558594,-0.966797 z m 1.742187,2.470703 c -0.03837,-1.56e-4 -0.08561,8.8e-4 -0.144531,0.0039 -1.609395,0.0821 -2.894531,1.429415 -2.894531,3.046875 v 1.15625 c 0,1.671785 1.37562,3.052734 3.050781,3.052734 h 16.927734 c 1.674045,0 3.052735,-1.378688 3.052735,-3.052734 v -1.15625 c -3e-6,-1.675161 -1.380952,-3.050781 -3.052735,-3.050781 H 64.544922 c -0.0027,1.5e-5 -0.0085,1.3e-5 -0.01172,0 z m -2.164062,14.974609 c 0.09846,0.0098 0.184309,0.05859 0.285156,0.05859 h 16.494141 c -0.295542,0.224131 -0.526563,0.542929 -0.841797,0.740234 -2.225481,1.385937 -4.962608,2.119141 -8.414063,2.119141 -3.489297,0 -5.699013,-0.863562 -7.234375,-2.423828 -0.124461,-0.129601 -0.173457,-0.353868 -0.289062,-0.494141 z"
     transform="scale(0.26458333)" />
  <path
     id="path9042"
     style="color:#000000;-inkscape-font-specification:'sans-serif, Italic';fill:#ffffff;stroke-width:0.999999;-inkscape-stroke:none"
     d="M 189.74023 11.369141 C 185.31869 11.369141 181.2443 12.58108 178.2207 14.498047 C 175.15192 16.563959 173.56641 19.513924 173.56641 23.169922 C 173.56641 25.136232 174.00164 26.858 174.88672 28.298828 L 174.88867 28.300781 L 174.88867 28.302734 C 175.78633 29.730829 177.08759 30.946482 178.76562 31.945312 L 178.76953 31.947266 L 178.77148 31.949219 C 180.47934 32.933744 182.98091 33.865204 186.30664 34.779297 C 189.59656 35.702874 191.91444 36.487372 193.20898 37.097656 L 193.21094 37.097656 L 193.21484 37.099609 C 194.51747 37.695092 195.39677 38.361668 195.88281 39.048828 L 195.88477 39.050781 L 195.88672 39.052734 C 196.3691 39.718094 196.63086 40.637083 196.63086 41.859375 C 196.63086 44.342736 195.75203 46.07606 193.93164 47.265625 C 192.11855 48.431621 189.11136 49.068359 184.93164 49.068359 C 181.46897 49.068359 178.89898 48.505904 177.22656 47.462891 C 177.12913 47.402128 177.03478 47.338383 176.94141 47.273438 C 176.08762 46.679609 175.06494 45.29508 174.62109 44.351562 C 174.52013 44.136935 174.43118 43.923187 174.34961 43.705078 C 173.98413 42.727803 173.04502 42.049997 172.02344 42.263672 L 169.625 42.765625 C 168.60342 42.979299 167.95535 43.981604 168.28711 44.970703 C 168.45571 45.473371 168.64392 45.965575 168.84766 46.435547 C 169.2623 47.392013 170.13965 48.850177 170.81055 49.648438 C 171.61961 50.611103 172.5603 51.434579 173.62891 52.136719 C 176.35364 53.67225 179.98878 54.414062 184.52539 54.414062 C 190.76499 54.414062 195.45527 53.342678 198.58203 51.103516 C 201.6954 48.873935 203.28125 45.616528 203.28125 41.511719 C 203.28125 39.413189 202.8204 37.611531 201.87305 36.146484 C 200.68872 34.580933 199.29102 33.26488 197.90625 32.445312 C 194.93413 30.995629 192.1628 30.077029 189.67188 29.380859 L 189.66992 29.380859 C 186.32109 28.47629 184.07241 27.745981 183.00586 27.240234 C 181.94149 26.707359 181.20715 26.106534 180.76953 25.46875 C 180.35426 24.835925 180.12891 23.996031 180.12891 22.908203 C 180.12891 20.761484 180.93009 19.26295 182.61914 18.203125 C 184.30819 17.143296 186.94589 16.570312 190.52539 16.570312 C 193.24927 16.570312 195.37044 17.047763 196.90625 17.951172 L 196.9082 17.951172 C 197.5387 18.317738 198.08928 18.761826 198.56055 19.289062 C 198.94396 19.71801 199.44058 20.513476 199.68359 21.035156 C 200.08022 21.886624 201.09071 22.388904 202.0918 22.09375 L 204.40234 21.412109 C 205.40343 21.116956 206.02749 20.048491 205.66016 19.072266 C 205.56714 18.825074 205.4678 18.583513 205.36328 18.347656 C 204.94136 17.395567 203.96798 15.991683 203.21289 15.273438 C 202.57679 14.668371 201.84786 14.132653 201.03125 13.666016 C 198.62577 12.277213 193.71737 11.339154 189.74023 11.369141 z M 76.267578 11.396484 L 76.267578 11.398438 C 71.59358 11.398438 67.374332 12.472001 63.644531 14.623047 C 59.913094 16.755638 56.991745 19.819067 54.904297 23.777344 C 53.012946 28.140272 51.837849 32.790665 51.804688 36.730469 C 51.804688 42.194966 53.361719 46.560498 56.498047 49.716797 L 56.5 49.71875 C 59.639559 52.858313 64.054396 54.414062 69.632812 54.414062 C 74.266634 54.414062 78.437103 53.370144 82.109375 51.277344 C 85.781318 49.184729 88.681651 46.201944 90.789062 42.361328 L 90.791016 42.361328 C 92.902449 38.493673 93.997927 33.926928 94.095703 28.685547 L 94.095703 28.677734 L 94.095703 28.675781 C 94.095703 23.455331 92.492174 19.220993 89.28125 16.089844 C 85.455567 12.264161 80.32571 11.441151 76.267578 11.396484 z M 17.445312 12.005859 A 2.2910122 2.2910122 0 0 0 15.195312 13.859375 L 7.8105469 51.978516 A 1.5587901 1.5587901 0 0 0 9.3417969 53.833984 L 11.505859 53.833984 A 2.2867964 2.2867964 0 0 0 13.751953 51.976562 L 18.664062 26.382812 C 18.664062 26.382812 19.345598 22.377359 19.671875 20.037109 L 33.744141 52.103516 A 2.8930749 2.8930749 0 0 0 36.394531 53.833984 L 39.726562 53.833984 A 2.2911174 2.2911174 0 0 0 41.976562 51.978516 L 49.363281 13.859375 A 1.5587185 1.5587185 0 0 0 47.832031 12.005859 L 45.611328 12.005859 A 2.2925931 2.2925931 0 0 0 43.359375 13.859375 L 38.396484 39.388672 C 38.10153 40.863561 37.732997 43.342065 37.355469 45.953125 L 23.195312 13.734375 A 2.8947834 2.8947834 0 0 0 20.544922 12.005859 L 17.445312 12.005859 z M 102.92773 12.005859 A 2.2880634 2.2880634 0 0 0 100.67969 13.861328 L 100.33203 15.669922 A 1.560799 1.560799 0 0 0 101.86523 17.527344 L 114 17.527344 L 107.28906 51.978516 A 1.5571705 1.5571705 0 0 0 108.81836 53.833984 L 111.56055 53.833984 A 2.2933951 2.2933951 0 0 0 113.8125 51.978516 L 120.52344 17.527344 L 132.65625 17.527344 A 2.2880803 2.2880803 0 0 0 134.9043 15.669922 L 135.25195 13.861328 A 1.5607875 1.5607875 0 0 0 133.71875 12.005859 L 102.92773 12.005859 z M 150.05273 12.005859 A 2.8211277 2.8211277 0 0 0 147.63477 13.371094 L 124.25781 52.214844 A 1.0682802 1.0682802 0 0 0 125.17383 53.833984 L 128.5918 53.833984 A 3.2876699 3.2876699 0 0 0 131.43359 52.199219 L 137.43555 41.896484 L 155.24805 41.896484 L 157.08203 51.974609 A 2.2646034 2.2646034 0 0 0 159.31055 53.833984 L 162.21094 53.833984 A 1.5383014 1.5383014 0 0 0 163.71875 51.982422 L 155.81641 13.855469 A 2.3215276 2.3215276 0 0 0 153.54297 12.005859 L 150.05273 12.005859 z M 76.007812 16.859375 C 79.759103 16.859375 82.565508 17.891394 84.544922 19.925781 C 86.541801 21.959303 87.5625 24.880085 87.5625 28.791016 C 87.5625 32.452792 86.832489 35.914357 85.373047 39.193359 L 85.373047 39.195312 C 83.937609 42.462827 81.927519 44.884521 79.333984 46.507812 C 76.758988 48.112078 73.624733 48.923828 69.892578 48.923828 C 66.061864 48.923828 63.225879 47.907751 61.269531 45.916016 L 61.267578 45.914062 C 59.330725 43.902942 58.337891 40.973142 58.337891 37.021484 C 58.337891 33.593089 59.037232 30.203151 60.443359 26.839844 C 61.841199 23.49636 63.830045 21.021225 66.421875 19.361328 C 69.035452 17.699844 72.218473 16.859375 76.007812 16.859375 z M 150.89844 18.195312 L 151.40625 21.142578 L 154.25195 36.578125 L 140.44141 36.578125 C 146.46865 26.020917 150.0544 19.737701 150.50977 18.921875 C 150.67724 18.621818 150.75816 18.453201 150.89844 18.195312 z M 65.660156 23.740234 C 65.070661 23.769924 64.605469 24.254433 64.605469 24.851562 L 64.605469 26.007812 C 64.605469 26.624204 65.102362 27.121094 65.71875 27.121094 L 82.646484 27.121094 C 83.262876 27.121094 83.757812 26.624204 83.757812 26.007812 L 83.757812 24.851562 C 83.757812 24.235171 83.262876 23.740234 82.646484 23.740234 L 65.71875 23.740234 C 65.699488 23.740234 65.679172 23.739277 65.660156 23.740234 z M 64.488281 31.03125 C 63.898786 31.060939 63.433594 31.545449 63.433594 32.142578 L 63.433594 33.298828 C 63.433594 33.91522 63.928534 34.412109 64.544922 34.412109 L 81.472656 34.412109 C 82.089048 34.412109 82.585938 33.91522 82.585938 33.298828 L 82.585938 32.142578 C 82.585937 31.526186 82.089048 31.03125 81.472656 31.03125 L 64.544922 31.03125 C 64.52566 31.03125 64.507297 31.030292 64.488281 31.03125 z M 62.654297 38.804688 C 62.037909 38.804688 61.541016 39.299624 61.541016 39.916016 L 61.541016 41.072266 C 61.541016 41.688657 62.037909 42.185547 62.654297 42.185547 L 79.582031 42.185547 C 80.198423 42.185547 80.695312 41.688657 80.695312 41.072266 L 80.695312 39.916016 C 80.695312 39.299624 80.198423 38.804688 79.582031 38.804688 L 62.654297 38.804688 z "
     transform="scale(0.26458333)" />
</svg>
