<?xml version="1.0" encoding="UTF-8" standalone="no"?>
<!-- Created with Inkscape (http://www.inkscape.org/) -->

<svg
   width="56"
   height="60"
   viewBox="0 0 14.816667 15.875"
   version="1.1"
   id="svg2740"
   xmlns="http://www.w3.org/2000/svg"
   xmlns:svg="http://www.w3.org/2000/svg">
  <defs
     id="defs2737" />
  <path
     style="display:inline;fill:#d77272;fill-opacity:1;stroke:none;stroke-width:0.264582"
     d="M 3.7388742,11.175466 C 3.5860982,10.786658 3.5732452,10.805498 4.9987852,9.3309776 L 6.3073582,7.9774289 5.0235722,6.6486711 C 3.5864912,5.1612576 3.5631602,5.1250935 3.7484342,4.673817 3.8661322,4.3872532 4.1545482,4.2120632 4.4915322,4.2224656 l 0.226433,0.00698 1.356821,1.3118491 1.35684,1.3118678 1.315196,-1.2931187 C 9.6751372,4.6474433 10.108959,4.2520879 10.221867,4.2167467 10.61747,4.092796 11.108109,4.474625 11.133591,4.9262947 l 0.0157,0.2780322 -1.3378898,1.3640818 -1.337891,1.3640818 1.33789,1.3640811 1.3378718,1.3640634 -0.0157,0.278032 c -0.0182,0.32286 -0.246845,0.598947 -0.58516,0.706613 -0.371896,0.118389 -0.508096,0.02002 -1.9010648,-1.372951 L 7.3867252,9.0117053 6.1231092,10.275321 c -1.412313,1.412314 -1.519026,1.486853 -1.924843,1.342211 -0.263925,-0.09409 -0.358218,-0.184824 -0.45932,-0.442109 z"
     id="path65512" />
</svg>
