<?xml version="1.0" encoding="UTF-8" standalone="no"?>
<!-- Created with Inkscape (http://www.inkscape.org/) -->

<svg
   width="56"
   height="60"
   viewBox="0 0 14.816667 15.875"
   version="1.1"
   id="svg2740"
   xmlns="http://www.w3.org/2000/svg"
   xmlns:svg="http://www.w3.org/2000/svg">
  <defs
     id="defs2737">
    <linearGradient
       id="linearGradient31162"
       gradientTransform="matrix(0,0,0,0,84.152037,-49.644859)">
      <stop
         style="stop-color:#7293d7;stop-opacity:1;"
         offset="0"
         id="stop31160" />
    </linearGradient>
  </defs>
  <g
     id="layer1"
     transform="translate(-65.497457,-94.115417)">
    <path
       style="fill:#ffffff;fill-opacity:1;stroke-width:1"
       d="m 72.480047,107.05731 c -0.447721,-0.0458 -0.655129,-0.13448 -0.722403,-0.30863 -0.02973,-0.077 -0.10708,-0.38447 -0.171886,-0.68335 -0.10439,-0.48145 -0.132937,-0.54915 -0.25035,-0.59379 -0.07289,-0.0277 -0.272301,-0.1353 -0.443146,-0.23908 l -0.310625,-0.1887 -0.620249,0.19165 c -0.486957,0.15045 -0.648981,0.1807 -0.753946,0.1408 -0.283909,-0.10792 -1.028979,-1.35547 -1.028979,-1.72291 0,-0.18772 0.08355,-0.29107 0.598776,-0.7407 l 0.362412,-0.31628 0.0053,-0.52975 0.0053,-0.52975 -0.485857,-0.44853 c -0.585965,-0.54092 -0.596671,-0.59043 -0.268878,-1.243309 0.383078,-0.763 0.689199,-1.14143 0.922933,-1.14096 0.08082,1.7e-4 0.404644,0.0814 0.7196,0.18041 l 0.572648,0.18011 0.162702,-0.122 c 0.08949,-0.0671 0.285012,-0.18325 0.434503,-0.25808 0.263061,-0.13169 0.273779,-0.14581 0.333351,-0.43921 0.143682,-0.70764 0.209386,-0.930913 0.30086,-1.022393 0.174012,-0.174006 1.048955,-0.25029 1.742075,-0.151873 0.402334,0.05715 0.481441,0.168795 0.631,0.890726 l 0.122106,0.58943 0.266476,0.13503 c 0.146561,0.0743 0.351578,0.19136 0.45559,0.26019 l 0.189115,0.12514 0.546043,-0.18389 c 0.685995,-0.23101 0.805191,-0.23285 1.008241,-0.0155 0.387436,0.41474 0.830283,1.258499 0.830283,1.581919 0,0.15246 -0.04826,0.22752 -0.302019,0.46975 -0.166109,0.15857 -0.384745,0.35934 -0.485855,0.44617 l -0.183837,0.1579 0.0049,0.51115 0.0049,0.51118 0.481097,0.45352 c 0.431342,0.40661 0.481077,0.47282 0.480889,0.64014 -3.38e-4,0.38669 -0.732991,1.61973 -1.029193,1.73235 -0.104984,0.0399 -0.267317,0.0101 -0.75594,-0.14143 l -0.622242,-0.19225 -0.254634,0.1634 c -0.140049,0.0899 -0.339701,0.19895 -0.44367,0.24238 l -0.189037,0.079 -0.120835,0.61488 c -0.0768,0.39078 -0.155015,0.64906 -0.214617,0.70865 -0.177431,0.17744 -0.878635,0.2725 -1.522967,0.20649 z m 1.11205,-3.58035 c 0.324905,-0.13977 0.692047,-0.53608 0.805748,-0.86978 0.04599,-0.13497 0.08362,-0.40288 0.08362,-0.59535 0,-0.28518 -0.02972,-0.40939 -0.160623,-0.67135 -0.18375,-0.36773 -0.377117,-0.55045 -0.777058,-0.73429 -0.244586,-0.11242 -0.336816,-0.1263 -0.709738,-0.10669 -0.347084,0.0182 -0.482009,0.0516 -0.70927,0.17524 -0.541101,0.29451 -0.822678,0.82358 -0.782034,1.46941 0.07174,1.13986 1.176395,1.79443 2.249355,1.33285 z"
       id="path2596" />
  </g>
</svg>
