<?xml version="1.0" encoding="UTF-8" standalone="no"?>
<!-- Created with Inkscape (http://www.inkscape.org/) -->

<svg
   width="17mm"
   height="18mm"
   viewBox="0 0 17 18"
   version="1.1"
   id="svg2667"
   xmlns="http://www.w3.org/2000/svg"
   xmlns:svg="http://www.w3.org/2000/svg">
  <defs
     id="defs2664" />
  <path
     style="font-variation-settings:normal;vector-effect:none;fill:#d77272;fill-opacity:1;stroke-width:0.264583;stroke-linecap:butt;stroke-linejoin:miter;stroke-miterlimit:4;stroke-dasharray:none;stroke-dashoffset:0;stroke-opacity:1;-inkscape-stroke:none;stop-color:#000000"
     d="m 3.5204921,15.00456 c -0.37322,-0.11822 -0.63029,-0.33658 -0.83828,-0.71216 l -0.18137,-0.32746 v -2.8354 c 0,-3.13679 -0.003,-3.12139 0.38846,-3.55414 0.3674,-0.4075 0.57293,-0.46743 1.60851,-0.46897 l 0.89943,-10e-4 v 0.70122 0.70124 h -0.73174 -0.7317 v 2.56101 2.56101 h 2.59149 2.59151 v -0.73172 -0.73172 h 0.70123 0.7012199 l -0.003,0.89941 c -0.003,0.74291 -0.0209,0.94184 -0.1137,1.14331 -0.14663,0.31833 -0.35599,0.53567 -0.6851899,0.7113 l -0.26686,0.14237 -2.8354,0.0123 c -2.24383,0.01 -2.88983,-0.005 -3.09626,-0.0703 z m 3.63805,-3.65427 c -0.342,-0.12221 -0.58695,-0.32459 -0.7702,-0.63633 l -0.16793,-0.28565 -0.0188,-2.8659 c -0.0124,-1.88049 0.003,-2.94113 0.0452,-3.08471 0.11059,-0.37749 0.40872,-0.72287 0.76451,-0.88577 l 0.32509,-0.14883 2.9582299,0.017 2.9582,0.0169 0.26265,0.18463 c 0.14444,0.10155 0.34573,0.30282 0.44728,0.44726 l 0.18463,0.26262 0.0183,2.90645 c 0.0135,2.18271 0,2.97473 -0.0579,3.18064 -0.0977,0.35208 -0.53401,0.79794 -0.88204,0.9013 -0.36769,0.10918 -5.7585499,0.10066 -6.0670799,-0.01 z"
     id="path28122" />
</svg>
