<?xml version="1.0" encoding="UTF-8" standalone="no"?>
<!-- Created with Inkscape (http://www.inkscape.org/) -->

<svg
   width="17mm"
   height="18mm"
   viewBox="0 0 17 18"
   version="1.1"
   id="svg2667"
   xmlns="http://www.w3.org/2000/svg"
   xmlns:svg="http://www.w3.org/2000/svg">
  <defs
     id="defs2664" />
  <g
     id="layer1"
     transform="translate(-73.47445,-135.09476)">
    <path
       style="display:inline;fill:#d77272;fill-opacity:1;stroke-width:0.264581"
       d="m 79.14907,149.76398 c -0.37751,-0.0911 -0.66748,-0.3692 -0.76197,-0.7308 -0.0302,-0.11572 -0.12167,-1.34779 -0.20319,-2.73792 -0.0815,-1.39012 -0.17948,-2.99542 -0.21775,-3.56731 -0.0383,-0.5719 -0.0583,-1.05113 -0.0445,-1.06496 0.0139,-0.0138 1.8504,-0.0251 4.08124,-0.0251 h 4.05613 l -0.0337,0.35499 c -0.0185,0.19524 -0.0721,1.04508 -0.11908,1.88853 -0.21788,3.9129 -0.31405,5.09998 -0.43364,5.35281 -0.13605,0.28762 -0.33921,0.44411 -0.67789,0.52218 -0.28564,0.0659 -5.37598,0.0727 -5.64573,0.008 z m -1.62509,-8.8929 c -0.26546,-0.14427 -0.37789,-0.61533 -0.21811,-0.91388 0.1482,-0.2769 0.29599,-0.30729 1.49419,-0.30729 h 1.10498 l 0.14825,-0.25298 c 0.25736,-0.43913 0.21024,-0.4286 1.91796,-0.4286 h 1.51893 l 0.19375,0.17013 c 0.10659,0.0936 0.22557,0.24693 0.26444,0.34079 l 0.0707,0.17066 h 1.15657 1.15658 l 0.17688,0.15803 c 0.33638,0.30057 0.2482,0.94139 -0.1504,1.09294 -0.0901,0.0343 -1.77353,0.0545 -4.41601,0.0531 -3.57767,-0.002 -4.29442,-0.0153 -4.41871,-0.0829 z"
       id="path66555" />
  </g>
</svg>
