<?xml version="1.0" encoding="UTF-8" standalone="no"?>
<!-- Created with Inkscape (http://www.inkscape.org/) -->

<svg
   width="39"
   height="39"
   viewBox="0 0 10.31875 10.31875"
   version="1.1"
   id="svg2667"
   xmlns="http://www.w3.org/2000/svg"
   xmlns:svg="http://www.w3.org/2000/svg">
  <defs
     id="defs2664">
    <linearGradient
       id="linearGradient31162"
       gradientTransform="matrix(-0.06380161,0,0,-0.04980008,188.74587,69.877112)">
      <stop
         style="stop-color:#7293d7;stop-opacity:1;"
         offset="0"
         id="stop31160" />
    </linearGradient>
  </defs>
  <path
     style="display:inline;fill:#d77272;fill-opacity:1;stroke-width:0.264583"
     d="M 1.3554115,9.3051242 C 1.1483403,9.1658974 1.0999133,8.9879427 1.0969976,8.3555469 l -0.0025,-0.5419101 h 1.061702 1.0617036 V 8.390147 c 0,0.9585129 -0.06075,1.0160443 -1.072905,1.0160443 -0.5924731,0 -0.6502834,-0.0074 -0.7895945,-0.1010671 z m 2.6585522,0.00284 C 3.7948871,9.1605102 3.7434867,8.9673891 3.7584793,8.3479835 L 3.7708755,7.8357624 4.8247974,7.8238965 5.8787186,7.8120305 5.8643828,8.4535571 5.8500437,9.0950848 5.7055418,9.2395843 5.5610391,9.3840821 4.8648062,9.3980365 c -0.6693195,0.013412 -0.7022111,0.00993 -0.8508451,-0.090093 z m 3.8218264,0.054896 C 7.6650874,9.2938556 7.5707015,9.1102633 7.4258092,8.5653297 7.3468762,8.2684536 7.2884994,8.0203432 7.2960918,8.0139762 7.3036759,8.0076145 7.5885868,7.9283209 7.9292164,7.8377859 8.2698458,7.747249 8.6800838,7.635102 8.8408563,7.5885721 9.3193617,7.450084 9.291846,7.4302719 9.4497345,8.0270034 9.6122463,8.6411886 9.6144664,8.676764 9.5018537,8.8614548 9.3904281,9.0441957 9.3571666,9.0600448 8.691244,9.2476849 8.1099132,9.4114864 7.9946217,9.4270066 7.8357898,9.362833 Z M 6.7790465,6.1655781 6.4251501,4.8718264 6.4121716,4.0888281 6.3991922,3.3058313 6.5891182,3.2553452 C 6.6935703,3.2275768 7.0570402,3.1273457 7.3968265,3.0326084 7.736606,2.9378679 8.0287034,2.8749851 8.0459326,2.8928642 8.0771177,2.9252295 9.1104942,6.7634372 9.119108,6.8789069 9.1220435,6.91806 8.9982862,6.9752354 8.7697325,7.040333 8.114302,7.2270197 7.2334474,7.4597295 7.1829989,7.4595285 7.1549998,7.4594492 6.9769837,6.8891957 6.7790465,6.1655781 Z M 1.1051334,5.1704304 1.1166172,3.0580843 h 1.0395842 1.0395858 l 0.011484,2.1123461 0.011484,2.1123478 H 2.1561927 1.0936325 Z m 2.6542566,0 0.011484,-2.1123461 1.0506445,-0.01186 1.0506439,-0.011861 V 5.158571 7.2827782 H 4.8100339 3.747902 Z M 6.4030176,1.9140259 V 1.0957878 L 6.657384,1.020232 C 6.7972852,0.9786779 7.0022347,0.9353093 7.1128285,0.9238599 7.2828867,0.9062538 7.3352985,0.9210359 7.4525507,1.0197 c 0.081726,0.068768 0.1663511,0.2023871 0.2061395,0.3254832 0.091094,0.2818229 0.256207,0.9456905 0.239388,0.9625096 -0.00745,0.00745 -0.3120315,0.095294 -0.6768765,0.1952433 C 6.85636,2.6028848 6.523012,2.6953707 6.4804323,2.7084628 6.4086358,2.7305367 6.4030179,2.6728744 6.4030176,1.9140259 Z M 1.0947507,1.963201 C 1.095139,1.3680925 1.1410816,1.1768659 1.3203784,1.0259968 1.4523671,0.91493521 1.4695273,0.91255875 2.1396791,0.91255875 c 1.0301484,0 1.0782285,0.0433016 1.0782285,0.97103075 V 2.4608768 H 2.1562057 1.094502 L 1.0948911,1.963201 Z M 3.7563168,1.852608 c 0.026445,-0.91396175 0.055817,-0.94004925 1.0584249,-0.94004925 1.0018136,0 1.0574251,0.0522699 1.0574251,0.99392645 V 2.4608768 H 4.8054432 3.7387185 Z"
     id="path13416" />
</svg>
