<?xml version="1.0" encoding="UTF-8" standalone="no"?>
<!-- Created with Inkscape (http://www.inkscape.org/) -->

<svg
   width="17mm"
   height="18mm"
   viewBox="0 0 17 18"
   version="1.1"
   id="svg2667"
   xmlns="http://www.w3.org/2000/svg"
   xmlns:svg="http://www.w3.org/2000/svg">
  <defs
     id="defs2664" />
  <path
     style="font-variation-settings:normal;opacity:1;vector-effect:none;fill:#d77272;fill-opacity:1;stroke-width:0.264583;stroke-linecap:butt;stroke-linejoin:miter;stroke-miterlimit:4;stroke-dasharray:none;stroke-dashoffset:0;stroke-opacity:1;-inkscape-stroke:none;stop-color:#000000;stop-opacity:1"
     d="m 9.4419849,14.225901 c 0.4583204,-0.08343 1.1551611,-0.306844 1.5053461,-0.482622 1.038888,-0.521474 2.040994,-1.570204 2.506765,-2.623396 0.539063,-1.2189161 0.539063,-2.9256251 0,-4.1445407 C 12.794657,5.4842334 11.251084,4.2201069 9.7326282,3.9276041 9.1622994,3.8177407 8.1153384,3.802576 7.4637227,3.9575891 6.5542708,4.1739389 5.7882998,4.5990357 5.0303618,5.3080492 c -0.218372,0.2042773 -0.428549,0.3714132 -0.467059,0.3714132 -0.04767,0 -0.07002,-0.226276 -0.07002,-0.7088797 0,-0.6162677 -0.01642,-0.7297608 -0.125722,-0.868709 -0.291198,-0.3701982 -0.950979,-0.3496146 -1.186726,0.037023 -0.112782,0.1849677 -0.121686,0.3239146 -0.121901,1.9023086 -2.5e-4,1.8942865 0.01454,1.9748133 0.396277,2.1559593 0.182059,0.086393 0.466931,0.1019701 1.864718,0.1019701 1.6153772,0 1.6542569,-0.00298 1.861768,-0.1426199 0.4360619,-0.2934414 0.4360619,-0.9182745 0,-1.211716 -0.188347,-0.1267453 -0.289013,-0.1429272 -0.90441,-0.1453816 l -0.692474,-0.00276 0.400453,-0.3734134 c 0.786387,-0.7332863 1.5230019,-1.058095 2.5031828,-1.1037737 1.0788284,-0.050276 1.9998444,0.3051762 2.7719024,1.0697735 0.792058,0.7844042 1.11742,1.5584476 1.11742,2.6583689 0,1.1016765 -0.325113,1.8737355 -1.120863,2.6617565 -0.791093,0.78341 -1.7577394,1.138133 -2.8927385,1.061527 -0.8269812,-0.05582 -1.4859137,-0.333055 -2.1930737,-0.922713 -0.51577,-0.43007 -0.878975,-0.464053 -1.214681,-0.113652 -0.150627,0.15722 -0.182451,0.243407 -0.182451,0.494113 0,0.251719 0.03201,0.337638 0.187119,0.50219 0.556456,0.590345 1.541288,1.16076 2.3701793,1.372807 0.5613745,0.143611 1.6477663,0.206539 2.1107228,0.12226 z"
     id="path2431" />
</svg>
