<?xml version="1.0" encoding="UTF-8" standalone="no"?>
<!-- Created with Inkscape (http://www.inkscape.org/) -->

<svg
   width="17mm"
   height="18mm"
   viewBox="0 0 17 18"
   version="1.1"
   id="svg2667"
   xmlns="http://www.w3.org/2000/svg"
   xmlns:svg="http://www.w3.org/2000/svg">
  <defs
     id="defs2664" />
  <path
     style="font-variation-settings:normal;vector-effect:none;fill:#d77272;fill-opacity:1;stroke-width:0.264583;stroke-linecap:butt;stroke-linejoin:miter;stroke-miterlimit:4;stroke-dasharray:none;stroke-dashoffset:0;stroke-opacity:1;-inkscape-stroke:none;stop-color:#000000"
     d="m 8.7599078,14.99399 c -0.32224,-0.0796 -0.59285,-0.27289 -0.73619,-0.52594 l -0.13623,-0.24051 -0.002,-3.56312 c -0.002,-3.43142 0.003,-3.57227 0.12005,-3.81102 0.0666,-0.13635 0.22225,-0.31651 0.34596,-0.40036 0.22212,-0.15055 0.24293,-0.15267 1.6777502,-0.17076 l 1.45284,-0.0183 v 1.13311 c 0,1.79267 -0.0285,1.76239 1.68311,1.78817 l 1.24377,0.0187 v 2.4773 c 0,2.39051 -0.004,2.48654 -0.1278,2.74131 -0.0888,0.18335 -0.21453,0.315 -0.41161,0.43084 l -0.28378,0.16683 -2.3171,0.0107 c -1.2744102,0.006 -2.4038202,-0.0107 -2.5097802,-0.0369 z m -5.19297,-1.47819 c -0.37983,-0.0856 -0.7099,-0.43335 -0.79705,-0.83973 -0.0449,-0.20935 -0.0674,-1.51106 -0.0674,-3.89786 0,-3.91861 0.009,-4.03026 0.34917,-4.34765 0.30042,-0.28026 0.43749,-0.3176 1.26604,-0.34486 l 0.79202,-0.0261 0.2343,-0.24143 c 0.29402,-0.30296 0.58482,-0.42615 1.01546,-0.43015 0.4213,-0.004 0.82033,0.16521 1.0755,0.45585 l 0.18976,0.21611 0.78587,0.026 c 0.91576,0.0303 1.1648,0.11699 1.41283,0.4918 0.11224,0.1696 0.1664,0.34546 0.1848202,0.60023 l 0.0261,0.36035 H 9.3280778 c -0.57186,0 -0.77249,0.0248 -1.05422,0.13018 -0.44063,0.16486 -0.82162,0.5143 -1.00643,0.92306 l -0.14411,0.31873 -0.0305,3.32321 -0.0305,3.32322 -1.61589,0.009 c -0.88872,0.005 -1.73451,-0.0175 -1.87948,-0.0502 z m 3.19325,-8.31 c 0.14889,-0.14888 0.1983,-0.44537 0.1118,-0.67078 -0.0494,-0.12878 -0.34013,-0.27713 -0.54307,-0.27713 -0.22943,0 -0.51663,0.30507 -0.51663,0.54879 0,0.46186 0.62288,0.72413 0.9479,0.39912 z M 12.275798,7.38361 V 6.30195 l 1.03326,1.03191 c 0.56828,0.56756 1.01941,1.0543 1.00252,1.08166 -0.0169,0.0274 -0.48189,0.0498 -1.03327,0.0498 h -1.00251 z"
     id="path28234" />
</svg>
