<?xml version="1.0" encoding="UTF-8" standalone="no"?>
<!-- Created with Inkscape (http://www.inkscape.org/) -->

<svg
   width="17mm"
   height="18mm"
   viewBox="0 0 17 18"
   version="1.1"
   id="svg2667"
   xmlns="http://www.w3.org/2000/svg"
   xmlns:svg="http://www.w3.org/2000/svg">
  <defs
     id="defs2664">
    <linearGradient
       id="linearGradient31162"
       gradientTransform="matrix(-0.09742332,0,0,-0.07604337,284.54489,-9.2136261)">
      <stop
         style="stop-color:#7293d7;stop-opacity:1;"
         offset="0"
         id="stop31160" />
    </linearGradient>
  </defs>
  <path
     style="display:inline;fill:#d77272;fill-opacity:1;stroke-width:0.264583"
     d="M 4.0859364,14.459694 C 3.6816072,14.332079 3.4028265,14.095323 3.1772296,13.687992 L 2.9806186,13.333014 V 9.0034486 4.6738586 L 3.1747237,4.3234984 C 3.4137143,3.8920879 3.7830248,3.6112462 4.234655,3.5175033 c 0.2300576,-0.047784 1.713814,-0.065022 4.5020891,-0.052342 4.1171069,0.018567 4.1616039,0.020248 4.4233329,0.1615568 0.309395,0.1669602 0.56363,0.4258863 0.736078,0.7496769 0.116699,0.2190598 0.123226,0.4649186 0.123226,4.6270532 0,4.1620988 -0.0065,4.4079688 -0.123226,4.6270288 -0.172448,0.323802 -0.426683,0.582741 -0.736078,0.749677 -0.262309,0.141539 -0.298103,0.142772 -4.5278705,0.155743 -3.4244729,0.0104 -4.3191267,-0.0046 -4.5462701,-0.0762 z M 9.7367655,9.4469832 C 11.430023,7.7537374 11.474483,7.7025324 11.472428,7.4474624 11.470029,7.1630425 11.389036,7.0183848 11.164897,6.8990153 10.795014,6.7020284 10.731286,6.7462707 9.2286191,8.2432798 8.4440273,9.024929 7.7760217,9.6644472 7.7441561,9.6644472 7.7122942,9.6644472 7.3950113,9.3818648 7.0390876,9.0364731 6.4629077,8.4773893 6.3656287,8.408523 6.1519341,8.408523 c -0.3217047,0 -0.6264482,0.2938002 -0.6264482,0.603919 0,0.1920312 0.1143752,0.3318657 0.9774221,1.194879 0.9269914,0.927021 0.9907989,0.977441 1.2367563,0.977441 0.2510715,0 0.3147102,-0.05539 1.9971012,-1.7377788 z"
     id="path8263" />
</svg>
